<?xml version="1.0" standalone="no"?>
<!DOCTYPE svg PUBLIC "-//W3C//DTD SVG 20010904//EN"
 "http://www.w3.org/TR/2001/REC-SVG-20010904/DTD/svg10.dtd">
<svg version="1.0" xmlns="http://www.w3.org/2000/svg"
 width="512.000000pt" height="512.000000pt" viewBox="0 0 512.000000 512.000000"
 preserveAspectRatio="xMidYMid meet">
<metadata>
Created by potrace 1.14, written by Peter Selinger 2001-2017
</metadata>
<g transform="translate(0.000000,512.000000) scale(0.100000,-0.100000)"
fill="#000000" stroke="none">
<path d="M1849 5118 c-5 -12 -3 -291 2 -294 4 -2 106 -4 228 -4 l221 -1 0
-305 0 -304 -22 -1 c-13 0 -30 -2 -38 -3 -8 -2 -42 -6 -75 -10 -50 -5 -111
-17 -215 -40 -41 -10 -108 -28 -130 -36 -220 -77 -364 -145 -511 -241 -298
-195 -508 -417 -696 -734 -55 -94 -166 -348 -177 -408 -2 -6 -9 -32 -16 -57
-7 -25 -14 -49 -15 -55 -2 -5 -10 -44 -19 -85 -9 -41 -18 -88 -21 -105 -27
-156 -27 -517 0 -656 3 -13 8 -40 11 -59 10 -59 44 -190 69 -264 210 -638 707
-1137 1345 -1349 74 -25 146 -45 185 -53 28 -6 172 -32 215 -39 75 -13 407
-13 505 0 309 40 570 128 818 274 256 152 436 315 650 591 63 81 169 270 227
405 55 127 120 342 135 446 3 24 9 60 11 79 3 19 8 49 11 65 9 49 10 344 2
425 -11 111 -21 184 -25 191 -2 4 -6 24 -10 45 -11 68 -72 271 -110 362 -44
107 -119 256 -151 299 -12 17 -23 34 -23 37 0 15 -147 213 -175 236 -15 12 -1
28 131 161 l148 148 122 -123 122 -124 106 107 106 106 -326 326 -326 326
-105 -104 c-92 -91 -103 -106 -91 -120 7 -9 50 -54 96 -99 l83 -82 -146 -146
-146 -145 -77 62 c-281 226 -671 392 -1017 433 -33 4 -69 8 -80 10 -11 1 -28
3 -37 3 -17 1 -18 23 -18 306 l0 306 221 -1 c121 -1 223 0 225 2 3 4 7 241 5
286 -1 9 -128 12 -601 12 -330 0 -600 -1 -601 -2z"/>
</g>
</svg>
